<svg width="31" height="18" viewBox="0 0 31 18" fill="none" xmlns="http://www.w3.org/2000/svg">
<g id="SVG" clip-path="url(#clip0_1_191)">
<g id="Group">
<path id="Vector" d="M28.9485 10.6253L28.9788 10.6102H28.994H29.0092L29.0243 10.595H29.0395V10.5798L29.0547 10.5646V10.5494V10.5343L29.0395 10.5191H29.0243L29.0092 10.5039H28.994H28.9788H28.9636H28.8726V10.6253H28.9485Z" fill="white"/>
<path id="Vector_2" d="M28.9637 10.6255L28.9788 10.6104L28.9485 10.6255H28.9637Z" fill="white"/>
<path id="Vector_3" d="M28.6299 10.6254V10.6406L28.6451 10.5647L28.6299 10.6254Z" fill="white"/>
<path id="Vector_4" d="M18.4601 7.93878L18.5056 7.86288L18.5512 7.78699L18.5967 7.74146H18.4146L18.4449 7.95396L18.4601 7.93878Z" fill="white"/>
<path id="Vector_5" d="M29.8743 8.42453L29.844 7.99953L29.7833 7.57453L29.7074 7.1647L29.6163 6.75488L29.4949 6.36024L29.3583 5.9656L29.2065 5.58613L29.0395 5.20667L28.8574 4.84238L28.6601 4.4781L28.4324 4.12899L28.1895 3.79506L27.9315 3.47631L27.6583 3.17274L27.3699 2.88435L27.0815 2.59595L26.7779 2.32274L26.4592 2.0647L26.1252 1.82185L25.7761 1.59417L25.427 1.39685L25.0627 1.2147L24.6833 1.04774L24.3038 0.895954L23.9092 0.759347L23.4993 0.653097L23.0895 0.562026L22.6645 0.486133L22.2395 0.425419L21.7993 0.395061L21.3743 0.379883L20.9342 0.395061L20.494 0.425419L20.069 0.486133L19.644 0.562026L19.2493 0.653097L18.8395 0.774526L18.4449 0.911133L18.0654 1.06292L17.6859 1.22988L17.3217 1.41203L16.9726 1.60935L16.6234 1.83703L16.2895 2.07988L15.9708 2.33792L15.6824 2.58078L15.6976 2.59595L15.9859 2.88435L16.2743 3.17274L16.2895 3.18792H19.2038V3.64328H16.6842L16.8056 3.79506L17.0333 4.12899L17.0788 4.20488H19.2038V4.66024H17.3672L17.4583 4.81203L17.6404 5.17631L17.6556 5.20667H19.1886V5.66203H17.8529L17.9592 5.92006L18.0654 6.22363H19.2038V6.67899H18.202L18.2172 6.70935L18.3083 7.11917L18.3234 7.2406H19.2038V7.25578L19.2342 7.2406L19.3101 7.21024L19.4011 7.17988L19.4922 7.14953L19.5833 7.13435L19.6743 7.11917L19.7654 7.10399L19.8717 7.08881H19.9779H20.0842H20.1752H20.2663L20.3574 7.10399L20.4484 7.11917L20.5243 7.13435L20.6002 7.14953L20.6761 7.1647L20.752 7.17988L20.8127 7.19506L20.8734 7.21024L20.9342 7.22542L20.9797 7.2406L21.0252 7.25578L21.0556 7.27095L21.0859 7.28613H21.1011L20.9645 8.07542L20.9342 8.06024L20.9038 8.04506L20.8583 8.02988L20.8127 8.0147L20.7672 7.99953L20.7217 7.98435L20.6761 7.96917L20.6306 7.95399L20.5699 7.93881L20.5092 7.92363L20.4484 7.90845L20.3877 7.89328H20.327H20.2663H20.1904H20.1145H20.0386H19.9627L19.8868 7.90845L19.8109 7.92363L19.7351 7.95399L19.6592 7.98435L19.5833 8.02988L19.5074 8.07542L19.4315 8.13613L19.3556 8.21203L19.2797 8.3031L19.2038 8.40935L19.1431 8.53078L19.0824 8.66738L19.0217 8.83435L18.9761 9.01649L18.9609 9.12274V9.1531H19.1734V9.62363H18.9761L19.0065 9.69953L19.0368 9.7906L19.0824 9.86649L19.1279 9.94238L19.1886 10.0031L19.2645 10.0638L19.3404 10.1093L19.4315 10.1549L19.5226 10.1852L19.6288 10.2156L19.6592 10.2308L19.7047 10.246H19.7502H19.8109H19.8717H19.9324H20.0083H20.0842L20.1601 10.2308L20.2359 10.2156L20.3118 10.2004L20.3877 10.1701L20.4636 10.1397L20.5243 10.1093L20.5851 10.0638L20.6458 10.0183L20.5243 10.7772L20.5092 10.7924L20.494 10.8076L20.4636 10.8227L20.4333 10.8379L20.4029 10.8683L20.3574 10.8835L20.3118 10.8986L20.2663 10.9138L20.2056 10.929L20.1297 10.9442L20.0386 10.9593L19.9324 10.9745H19.8261H19.7047H19.5529L19.3859 10.9593L19.2493 10.9442L19.1127 10.9138L18.9761 10.8683L18.8395 10.8076L18.7181 10.7317L18.5967 10.6406L18.5359 10.5951H18.2931L18.2172 10.929L18.1565 11.1567H19.219V11.612H18.0047L17.9592 11.7335L17.8074 12.1129L17.777 12.1736H19.2038V12.629H17.5797L17.4734 12.8567L17.2761 13.1906H19.2342V13.646H16.9726L16.8056 13.8736L16.5476 14.1924V14.2076H19.2342V14.6781H16.1226L16.0011 14.8147L15.7127 15.1031L15.6976 15.1183L15.9859 15.3611L16.3047 15.6192L16.6386 15.862L16.9877 16.0897L17.3368 16.3022L17.7011 16.4843L18.0806 16.6513L18.4601 16.8031L18.8547 16.9397L19.2645 17.0611L19.6743 17.1522L20.0993 17.2281L20.5243 17.2888L20.9645 17.3192L21.4047 17.3343L21.8449 17.3192L22.2851 17.2888L22.7101 17.2281L23.1351 17.1522L23.5449 17.0611L23.9547 16.9397L24.3493 16.8031L24.7288 16.6513L25.1083 16.4843L25.4726 16.3022L25.8217 16.0897L26.1708 15.862L26.5047 15.6192L26.8234 15.3611L27.127 15.0879L27.4154 14.7995L27.7038 14.5111L27.977 14.2076L28.2351 13.8888L28.4779 13.5549L28.6601 13.2817L28.8726 12.9326L29.0547 12.5683L29.2217 12.1888L29.3734 11.8093L29.5101 11.4147L29.6315 11.0049L29.7226 10.5951L29.7984 10.1701L29.8592 9.74506L29.8895 9.30488L29.9047 8.8647L29.8743 8.42453ZM23.3476 10.3826L23.2261 11.0201V11.0352H23.2109H22.4976H22.4824V11.0201V10.8986V10.7924V10.7317L22.4368 10.7772L22.3913 10.8227L22.3306 10.8683L22.2699 10.9138L22.194 10.9442L22.1181 10.9745L22.0422 11.0049L21.9663 11.0352L21.8904 11.0656L21.8145 11.0808L21.7386 11.096H21.6627H21.5868L21.5109 11.0808L21.4351 11.0656L21.3288 11.0352L21.2226 11.0049L21.1467 10.9745L21.0708 10.929L21.0101 10.8835L20.9493 10.8227L20.9038 10.762L20.8583 10.7013L20.8279 10.6406L20.7976 10.5799L20.7672 10.5192L20.752 10.4585L20.7368 10.3977L20.7217 10.3218V10.2611V10.2004L20.7368 10.0942L20.752 9.98792L20.7824 9.88167L20.8127 9.7906L20.8583 9.69953L20.919 9.60845L20.9797 9.53256L21.0556 9.45667L21.1315 9.38078L21.2074 9.32006L21.2984 9.25935L21.3895 9.21381L21.4806 9.16828L21.5717 9.13792L21.6627 9.10756L21.769 9.09238H21.7842H21.8145H21.8449H21.8752H21.9208H21.9663H22.0118H22.0574H22.1029H22.1484H22.194H22.2395H22.2851H22.3306H22.3609H22.4368H22.5127H22.5734H22.6342H22.6949H22.7404H22.7708L22.7859 9.04685L22.8011 8.98613V8.92542L22.7859 8.8647L22.7556 8.81917L22.7252 8.77363L22.6797 8.7281L22.6342 8.69774L22.5734 8.66738L22.5127 8.6522H22.452H22.3761H22.2851H22.194H22.1029H22.0118L21.9208 8.66738L21.8297 8.68256L21.7386 8.69774L21.6627 8.71292L21.5868 8.7281L21.5109 8.74328L21.4351 8.75845L21.3743 8.77363L21.3288 8.78881L21.2984 8.80399L21.2681 8.81917L21.2377 8.80399L21.4351 8.10578V8.0906H21.4502L21.5109 8.06024L21.5261 7.96917L21.602 7.95399L21.6779 7.93881L21.7538 7.92363L21.8297 7.90845L21.9056 7.89328H21.9815H22.0574H22.1333H22.2092H22.3002H22.3913H22.4824H22.5734H22.6645H22.7404L22.8315 7.90845L22.9226 7.92363L23.0136 7.95399L23.1047 7.98435L23.1958 8.02988L23.2868 8.07542L23.3627 8.13613L23.4386 8.19685L23.5145 8.27274L23.5752 8.34863L23.6208 8.4397L23.6511 8.53078L23.6663 8.63703V8.74328L23.6511 8.8647L23.3476 10.3826ZM25.1993 8.69774L25.1234 8.7281L25.0476 8.75845L24.9868 8.80399L24.9261 8.84953L24.8806 8.89506L24.8351 8.95578L24.8047 9.01649L24.7743 9.0772L24.744 9.13792L24.7136 9.19863L24.6984 9.25935L24.6833 9.32006L24.6681 9.38078L24.3645 11.0049H23.5601L24.0913 7.93881H24.8958L24.8047 8.45488L24.8502 8.39417L24.8958 8.34863L24.9413 8.28792L24.9868 8.24238L25.0324 8.19685L25.0779 8.15131L25.1234 8.10578L25.169 8.06024L25.2297 8.02988L25.2904 7.99953L25.3511 7.96917L25.4118 7.93881L25.4877 7.92363L25.5636 7.90845L25.6395 7.89328H25.7154L25.594 8.63703H25.5788H25.5484H25.5029H25.3967L25.2904 8.6522L25.1993 8.69774ZM28.0074 11.0049H27.2181L27.2788 10.6861V10.6558L27.2333 10.7165L27.1877 10.762L27.1422 10.8076L27.0967 10.8531L27.0511 10.8835L27.0056 10.9138L26.9601 10.9442L26.8993 10.9745L26.8386 10.9897L26.7779 11.0049L26.7172 11.0201L26.6565 11.0352L26.5958 11.0504H26.5351H26.4743H26.4136L26.2618 11.0352L26.1252 11.0049L26.0038 10.9593L25.8824 10.8986L25.7761 10.8227L25.6851 10.7317L25.6092 10.6254L25.5333 10.504L25.4726 10.3826L25.427 10.246L25.3967 10.1093L25.3663 9.95756L25.3511 9.80578V9.65399L25.3663 9.5022L25.3967 9.35042L25.4726 9.18345L25.5181 9.01649L25.5788 8.8647L25.6547 8.7281L25.7306 8.59149L25.8217 8.47006L25.9127 8.36381L26.0038 8.27274L26.1101 8.19685L26.2163 8.12095L26.3226 8.06024L26.4288 8.0147L26.5502 7.96917L26.6717 7.93881L26.7931 7.92363H26.9145H26.9904L27.0663 7.93881L27.1422 7.95399L27.2181 7.96917L27.2788 7.99953L27.3395 8.02988L27.4002 8.06024L27.4458 8.0906L27.4913 8.12095L27.5368 8.15131L27.5672 8.18167L27.5976 8.21203L27.6279 8.24238L27.6583 8.27274L27.6886 8.3031L27.7038 8.33345L27.9011 7.21024H28.6752L28.0074 11.0049ZM29.3431 10.7165L29.3127 10.7924L29.2672 10.8683L29.2217 10.929L29.1609 10.9745L29.0851 11.0049L29.0092 11.0352L28.9333 11.0504L28.8574 11.0352L28.7815 11.0049L28.7056 10.9745L28.6449 10.929L28.5993 10.8683L28.5538 10.7924L28.5234 10.7165L28.5083 10.6406L28.5234 10.5647L28.5538 10.4888L28.5993 10.4129L28.6449 10.3522L28.7056 10.3067L28.7815 10.2763L28.8574 10.246L28.9333 10.2308L29.0092 10.246L29.0851 10.2763L29.1609 10.3067L29.2217 10.3522L29.2672 10.4129L29.3127 10.4888L29.3431 10.5647L29.3583 10.6406L29.3431 10.7165Z" fill="white"/>
<path id="Vector_6" d="M29.2673 10.5647L29.2521 10.504L29.2218 10.4432L29.1914 10.3977L29.1459 10.3522L29.0852 10.3218L29.0244 10.3066H28.9637H28.903L28.8423 10.3218L28.7816 10.3522L28.736 10.3977L28.7057 10.4432L28.6753 10.504L28.6602 10.5647V10.6406V10.7165L28.6753 10.7772L28.7057 10.8379L28.736 10.8834L28.7816 10.929L28.8423 10.9593L28.903 10.9745H28.9637H29.0244L29.0852 10.9593L29.1459 10.929L29.1914 10.8834L29.2218 10.8379L29.2521 10.7772L29.2673 10.7013V10.6254V10.6102V10.5647ZM29.1003 10.5799V10.595L29.0852 10.6102L29.07 10.6254L29.0548 10.6406H29.0396H29.0244H29.0093L29.1003 10.7772H29.0396L28.9485 10.6406H28.8727V10.7772H28.8119V10.595V10.4281H28.9637H28.9941H29.0244L29.0548 10.4432L29.07 10.4584L29.0852 10.4736L29.1003 10.4888V10.504V10.5191V10.5799Z" fill="white"/>
<path id="Vector_7" d="M28.5538 10.5496L28.5386 10.6406L28.5538 10.6255V10.5496Z" fill="white"/>
<path id="Vector_8" d="M29.3584 10.6255V10.6406L29.3433 10.5496L29.3584 10.6255Z" fill="white"/>
<path id="Vector_9" d="M15.3789 14.8754L15.2574 14.7388L15.2271 14.6933L15.1057 14.5718L14.8324 14.2683L14.5744 13.9495L14.4074 13.7218L14.3923 13.6915L14.3467 13.6156L14.1191 13.2817L13.9217 12.9326L13.8155 12.7049L13.7851 12.6897L13.7244 12.5683L13.5574 12.1888L13.4057 11.8093L13.269 11.4147L13.1476 11.0049L13.1324 10.8531V10.8683L13.1173 10.8835L13.1021 10.8986L13.0869 10.9138L13.0717 10.929L13.0262 10.9442L12.9958 10.9593L12.9655 10.9745L12.9351 10.9897L12.9048 11.0049H12.8744H12.8441H12.8137H12.7833H12.7378H12.6923H12.6467H12.4342H12.3128L12.2065 10.9897L12.1155 10.9745L12.0396 10.9593L11.9789 10.929L11.9182 10.8986L11.8726 10.8683L11.8423 10.8379L11.8119 10.7924L11.7967 10.7468L11.7816 10.7013L11.7664 10.6406V10.5799V10.5192L11.7816 10.4585L11.7967 10.3826L12.3432 7.25578H13.0566L13.0717 7.1647L13.1628 6.75488L13.178 6.72453V6.70935L13.2842 6.36024L13.4208 5.9656L13.5726 5.58613L13.7396 5.20667L13.9217 4.84238L14.1191 4.49328L14.3467 4.14417L14.5744 3.81024L14.6958 3.65845L14.8324 3.49149L15.1057 3.18792L15.394 2.89953L15.6824 2.61113L15.6976 2.59595L15.4092 2.3531L15.0905 2.09506L14.7566 1.8522L14.4074 1.62453L14.0583 1.4272L13.6941 1.24506L13.3146 1.0781L12.9351 0.926311L12.5405 0.789704L12.1307 0.668276L11.7208 0.577204L11.2958 0.501311L10.8708 0.440597L10.4458 0.395061L10.0057 0.379883L9.56548 0.395061L9.1253 0.425419L8.7003 0.486133L8.2753 0.562026L7.86548 0.653097L7.45566 0.774526L7.06101 0.911133L6.68155 1.06292L6.30209 1.22988L5.9378 1.41203L5.58869 1.60935L5.23959 1.83703L4.90566 2.07988L4.58691 2.33792L4.28334 2.61113L3.99494 2.89953L3.70655 3.18792L3.43334 3.49149L3.1753 3.81024L2.93244 4.14417L2.71994 4.4781L2.50744 4.8272L2.3253 5.19149L2.15834 5.57095L2.00655 5.95042L1.86994 6.34506L1.74851 6.7397L1.65744 7.14953L1.58155 7.55935L1.52084 7.98435L1.50566 8.42453L1.49048 8.8647L1.50566 9.30488L1.53601 9.74506L1.59673 10.1701L1.67262 10.5951L1.76369 11.0049L1.88512 11.4147L2.02173 11.8093L2.17351 12.1888L2.34048 12.5683L2.52262 12.9326L2.71994 13.2817L2.94762 13.6308L3.19048 13.9647L3.44851 14.2835L3.72173 14.587L4.01012 14.8754L4.29851 15.1638L4.60209 15.437L4.92084 15.6951L5.25476 15.9379L5.60387 16.1656L5.95298 16.3781L6.31726 16.5602L6.69673 16.7272L7.07619 16.879L7.47084 17.0156L7.88066 17.137L8.29048 17.2281L8.71548 17.304L9.14048 17.3647L9.58066 17.3951L10.0208 17.4102L10.461 17.3951L10.9012 17.3647L11.3262 17.304L11.7512 17.2281L12.161 17.137L12.5708 17.0156L12.9655 16.879L13.3449 16.7272L13.7244 16.5602L14.0887 16.3781L14.4378 16.1656L14.7869 15.9379L15.1208 15.6951L15.4396 15.437L15.728 15.1942L15.7128 15.179L15.3789 14.8754ZM6.11994 11.0049H5.34584L5.83155 8.19685H5.80119L4.63244 11.0049H3.75209V10.8835L3.73691 10.5647L3.70655 10.1245L3.67619 9.60845L3.64584 9.09238L3.61548 8.63703L3.6003 8.3031V8.16649H3.58512H3.56994H3.55476L3.08423 11.0049H2.29494L2.94762 7.2406H4.29851L4.43512 9.48703L5.37619 7.25578H6.7878L6.11994 11.0049ZM9.11012 10.3826L8.98869 11.0049H8.26012L8.2753 10.8835L8.29048 10.7772L8.32084 10.7013L8.33601 10.6558L8.29048 10.7013L8.24494 10.7468L8.18423 10.7924L8.12351 10.8379L8.04762 10.8835L7.97173 10.9138L7.89584 10.9442L7.81994 10.9745L7.75923 11.0049L7.68334 11.0201L7.60744 11.0352L7.51637 11.0504H7.44048H7.36459H7.25834L7.18244 11.0352L7.07619 11.0049L6.98512 10.9745L6.90923 10.9442L6.83334 10.8986L6.77262 10.8531L6.71191 10.8076L6.66637 10.7468L6.62084 10.7013L6.59048 10.6406L6.56012 10.5799L6.52976 10.5192L6.51459 10.4585L6.49941 10.3977V10.3218V10.2611V10.2004L6.51459 10.0942L6.52976 9.98792L6.56012 9.88167L6.59048 9.7906L6.63601 9.69953L6.68155 9.62363L6.74226 9.54774L6.81816 9.47185L6.89405 9.41113L6.96994 9.35042L7.04584 9.2897L7.13691 9.24417L7.22798 9.19863L7.31905 9.16828L7.41012 9.13792L7.51637 9.12274H7.53155H7.54673H7.57709H7.60744H7.65298H7.69851H7.74405H7.78959H7.83512H7.88066H7.92619H7.97173H8.01726H8.0628H8.09316H8.15387H8.22976H8.29048H8.35119H8.39673H8.44226H8.47262H8.4878V9.10756L8.50298 9.06203L8.51816 9.00131V8.9406L8.50298 8.87988L8.47262 8.81917V8.69774L8.42709 8.6522L8.36637 8.62185L8.32084 8.59149L8.24494 8.57631H8.16905H8.09316H8.00209H7.91101H7.81994H7.72887L7.6378 8.59149L7.54673 8.60667L7.45566 8.62185L7.36459 8.63703L7.28869 8.6522L7.2128 8.66738L7.13691 8.68256L7.07619 8.69774L7.03066 8.71292L6.98512 8.7281H6.95476L7.15209 8.02988L7.2128 7.99953L7.27351 7.96917L7.34941 7.95399L7.4253 7.93881L7.50119 7.92363L7.57709 7.90845L7.65298 7.89328H7.72887H7.80476H7.88066H7.97173H8.0628H8.15387H8.24494H8.35119H8.45744H8.53334L8.62441 7.90845L8.71548 7.92363L8.80655 7.95399L8.89762 7.98435L8.98869 8.02988L9.07976 8.07542L9.15566 8.13613L9.23155 8.19685L9.29226 8.27274L9.35298 8.34863L9.39851 8.4397L9.42887 8.53078L9.44405 8.62185V8.7281L9.42887 8.84953L9.11012 10.3826ZM11.6449 8.60667H11.5994H11.5539H11.5235H11.4932H11.4628H11.4324H11.4021H11.3566H11.311H11.2655H11.2199H11.1592H11.0985H11.0378H10.9619H10.886L10.8101 8.57631H10.7646L10.7191 8.59149L10.6735 8.60667L10.628 8.62185L10.5976 8.6522L10.5673 8.68256L10.5369 8.71292L10.5217 8.74328L10.5065 8.77363V8.80399V8.83435L10.5217 8.8647L10.5369 8.89506L10.5673 8.92542L10.5976 8.95578L10.6583 9.01649L10.7342 9.06203L10.8101 9.09238L10.9012 9.12274L10.9923 9.1531L11.0833 9.18345L11.1744 9.21381L11.2655 9.24417L11.3566 9.2897L11.4324 9.35042L11.5083 9.42631L11.5691 9.51738L11.6146 9.62363L11.6449 9.76024L11.6601 9.91203L11.6449 10.0942L11.6298 10.2308L11.5994 10.3522L11.5083 10.4888L11.4476 10.5799L11.3869 10.6558L11.311 10.7317L11.2351 10.7924L11.144 10.8531L11.053 10.8986L10.9619 10.929L10.8708 10.9593L10.7494 10.9897L10.6583 11.0049L10.5673 11.0201H10.4762H10.3851H10.2637H10.1423H10.036H9.94494H9.85387H9.77798H9.70209L9.65655 11.0049H9.59584L9.53512 10.9745L9.47441 10.9593L9.42887 10.9442H9.38334L9.3378 10.929L9.29226 10.9138L9.24673 10.8986L9.36816 10.2611H9.39851L9.42887 10.2763L9.47441 10.2915L9.51994 10.3067L9.56548 10.3218L9.62619 10.337L9.68691 10.3522L9.7628 10.3674L9.83869 10.3826L9.91459 10.3977L9.99048 10.4129L10.0664 10.4281H10.1423H10.2182H10.2941H10.3699L10.4458 10.4129L10.5065 10.3826L10.5521 10.3522L10.5976 10.3067L10.628 10.2611L10.6583 10.2156L10.6735 10.1701L10.6887 10.1245V10.0486V9.94238L10.6432 9.88167L10.5673 9.83613L10.4762 9.7906L10.3699 9.74506L10.2637 9.69953L10.1574 9.65399L10.036 9.60845L9.92976 9.54774L9.83869 9.48703L9.74762 9.39595L9.67173 9.2897L9.62619 9.16828L9.59584 9.01649V8.83435L9.61101 8.7281L9.62619 8.62185L9.65655 8.53078L9.68691 8.4397L9.73244 8.34863L9.77798 8.27274L9.83869 8.19685L9.91459 8.13613L9.99048 8.07542L10.0815 8.02988L10.1878 7.98435L10.3092 7.95399L10.4458 7.92363L10.5824 7.90845L10.7342 7.89328H10.9012H11.0074H11.0985H11.1896H11.2655H11.3414H11.4021H11.4628H11.5083H11.5539L11.5994 7.90845H11.6298H11.6601H11.6905H11.7208H11.7512H11.7816L11.6449 8.60667Z" fill="white"/>
<path id="Vector_10" d="M12.6011 10.1702V10.2309L12.6163 10.2764L12.6466 10.322L12.677 10.3523L12.7377 10.3675L12.7832 10.3827L12.8439 10.3978H12.9198H12.9805H13.0261L12.9957 10.155L12.935 9.72999L12.9198 9.62374H12.8288L12.7984 9.16838H12.9046L12.8895 8.86481L12.9046 8.57642H12.8743L12.6011 10.1702Z" fill="white"/>
<path id="Vector_11" d="M16.0011 14.8753L16.1225 14.7539H15.2422L15.3788 14.8753L15.6672 15.1637L15.6824 15.1789L15.7127 15.1637L16.0011 14.8753Z" fill="white"/>
<path id="Vector_12" d="M16.7905 11.0048H16.7754H15.9557L16.5021 7.93878H17.3218L17.2155 8.45485L17.2611 8.40931L17.3066 8.3486L17.337 8.28788L17.3825 8.24235L17.428 8.19681L17.4736 8.15128L17.5191 8.10574L17.5646 8.07538L17.6254 8.02985L17.6709 8.01467L17.7316 7.98431L17.7923 7.95396L17.8682 7.93878L17.9441 7.9236H18.02L18.1111 7.90842H18.1263H18.1566L18.1718 7.9236H18.187H18.2173H18.2325H18.2477L18.2325 7.93878L18.2173 7.95396L18.2021 7.98431L18.1718 8.02985L18.1414 8.07538L18.1263 8.1361L18.0959 8.18163L18.0655 8.24235L18.0352 8.31824L18.02 8.40931L17.9896 8.48521L17.9745 8.5611L17.9593 8.62181L17.9441 8.66735V8.71288H17.9289H17.9138H17.8986H17.8834H17.8682V8.6977H17.853L17.7468 8.71288L17.6405 8.72806L17.5495 8.74324L17.4736 8.7736L17.4129 8.80396L17.337 8.84949L17.2914 8.87985L17.2459 8.92538L17.2004 8.97092L17.17 9.03163L17.1396 9.07717L17.1245 9.13788L17.1093 9.16824H18.0504L18.0655 9.01646L18.0959 8.89503L18.1111 8.78878L18.1414 8.68253L18.1718 8.57628L18.2021 8.47003L18.2477 8.36378L18.278 8.27271L18.3236 8.18163L18.3691 8.09056L18.3995 8.01467L18.445 7.95396L18.4146 7.74146H13.0414L13.0111 7.93878H13.4816L13.3754 8.59145L12.9048 8.57628L12.8896 8.86467L12.9048 9.16824H13.3298L13.345 9.07717L13.3754 8.95574L13.4209 8.83431L13.4664 8.6977L13.5423 8.57628L13.6182 8.45485L13.7093 8.3486L13.8155 8.22717L13.9521 8.1361L14.0888 8.04503L14.2557 7.98431L14.4379 7.9236L14.6504 7.89324L14.878 7.87806H14.9995L15.1057 7.89324L15.2271 7.9236L15.3486 7.93878L15.47 7.98431L15.5763 8.04503L15.6825 8.10574L15.7736 8.18163L15.8646 8.28788L15.9254 8.39413L15.9861 8.53074L16.0316 8.68253L16.0468 8.84949V9.04681L16.0316 9.27449L15.9861 9.51735L15.9709 9.68431H14.1191L14.1039 9.71467V9.77538L14.1191 9.82092V9.88163L14.1495 9.92717L14.1646 9.98788L14.195 10.0334L14.2254 10.0941L14.2709 10.1397L14.3164 10.1852L14.362 10.2307L14.4075 10.2611L14.4682 10.2915L14.5289 10.3218L14.5745 10.337L14.6352 10.3522H14.7111L14.787 10.3673L14.8629 10.3825H14.9388H14.9995H15.0905H15.1513H15.2423L15.3182 10.3673L15.3941 10.3522L15.47 10.337L15.5459 10.3066L15.6218 10.2763L15.7129 10.2459L15.7888 10.2004L15.8798 10.1397L15.7584 10.8531L15.7129 10.8682L15.6673 10.8986L15.6218 10.9138L15.5763 10.929L15.5307 10.9441L15.4852 10.9593L15.4396 10.9745H15.3941L15.3486 10.9897H15.2879L15.2271 11.0048H15.1664H15.0905H15.0146H14.9236H14.8325H14.6807L14.5441 10.9897L14.3923 10.9745L14.2557 10.9441L14.1191 10.8986L13.9825 10.8379L13.8459 10.7772L13.7245 10.6861L13.6182 10.595L13.5271 10.4736L13.4361 10.337L13.3754 10.1852L13.3146 10.0182L13.2843 9.82092V9.6236H12.92L12.9352 9.72985L12.9959 10.1548L13.0263 10.3977H13.0414L13.087 10.3825H13.1325L13.178 10.3673L13.1932 10.3522H13.2236L13.1325 10.8531L13.1629 10.9897L13.2691 11.3995L13.4057 11.7941L13.5575 12.1736L13.7245 12.5531L13.7852 12.6897L13.5879 12.2343H17.7923L17.8227 12.1736L17.9745 11.7941L18.0048 11.6727H13.3602L13.2236 11.2173H18.1566L18.2173 10.9897L18.2932 10.6557H16.8513L16.7905 11.0048Z" fill="white"/>
<path id="Vector_13" d="M14.2253 9.1228H14.0128L13.8914 9.68441H14.119V9.66923L14.2253 9.1228Z" fill="white"/>
<path id="Vector_14" d="M18.0806 9.88157L18.035 9.68425V9.62354H17.0181L16.927 10.1851H18.1868L18.1261 10.0485L18.0806 9.88157Z" fill="white"/>
<path id="Vector_15" d="M15.3788 2.86925L15.0904 3.15764L14.8324 3.47639L14.6958 3.64335L15.0904 3.17282H16.3047L16.2896 3.15764L16.0012 2.86925L15.7128 2.58085L15.6824 2.56567L15.6672 2.58085L15.3788 2.86925Z" fill="white"/>
<path id="Vector_16" d="M13.9217 12.9173L14.119 13.2816L14.3315 13.6307L14.3923 13.6914L14.119 13.2664H17.261L17.4583 12.9173L17.5798 12.7048H13.8003L13.9217 12.9173Z" fill="white"/>
<path id="Vector_17" d="M14.5744 3.7951L14.3315 4.12902L14.119 4.47813L13.9217 4.82724L13.7244 5.19152L13.5574 5.57099L13.4057 5.95045L13.269 6.3451L13.178 6.6942L13.3146 6.25402H18.0807L17.9744 5.95045L17.8682 5.69242H13.5119L13.7092 5.22188H17.6708L17.6557 5.19152L17.4583 4.82724L17.3673 4.66027H14.0128L14.286 4.20492H17.0941L17.0333 4.12902L16.8057 3.7951L16.6842 3.64331H14.6958L14.5744 3.7951Z" fill="white"/>
<path id="Vector_18" d="M15.2727 9.12277V9.04688V8.98616V8.91027L15.2575 8.86473L15.2423 8.80402L15.2119 8.75848L15.1968 8.71295L15.1664 8.66741L15.1209 8.63705L15.0905 8.6067L15.045 8.59152L14.9994 8.56116L14.9539 8.54598L14.9084 8.5308H14.8628L14.8173 8.51562H14.7566L14.7111 8.5308L14.6503 8.54598L14.6048 8.56116L14.5593 8.57634L14.5137 8.6067L14.4682 8.63705L14.4378 8.66741L14.3923 8.71295L14.3619 8.75848L14.3316 8.80402L14.3012 8.84955L14.2861 8.89509L14.2557 8.9558L14.2405 9.01652L14.2253 9.07723V9.12277H15.2727Z" fill="white"/>
<path id="Vector_19" d="M14.5744 13.9496L14.8325 14.2835L15.0905 14.5871L15.2119 14.7085L14.8476 14.2835H16.5476L16.8057 13.9496L16.9726 13.7219H14.4075L14.5744 13.9496Z" fill="white"/>
<path id="Vector_20" d="M14.1038 9.71468L14.1189 9.68433L14.1038 9.71468Z" fill="white"/>
<path id="Vector_21" d="M13.1627 6.73959L13.0564 7.14941L13.0413 7.25566H13.1172V7.27084H18.3386L18.3082 7.14941L18.2172 6.73959V6.70923H13.1627V6.73959Z" fill="white"/>
<path id="Vector_22" d="M16.6842 3.64339H19.2038V3.17285H16.3047L16.5475 3.47642L16.6842 3.64339Z" fill="white"/>
<path id="Vector_23" d="M14.6958 3.64339H16.6842L16.5476 3.47642L16.3047 3.17285H15.0904L14.6958 3.64339Z" fill="white"/>
<path id="Vector_24" d="M17.3672 4.66019H19.2038V4.20483H17.094L17.261 4.47805L17.3672 4.66019Z" fill="white"/>
<path id="Vector_25" d="M14.0127 4.66019H17.3672L17.2609 4.47805L17.0939 4.20483H14.2859L14.0127 4.66019Z" fill="white"/>
<path id="Vector_26" d="M17.8682 5.69246H19.2039V5.22192H17.6709L17.8227 5.57103L17.8682 5.69246Z" fill="white"/>
<path id="Vector_27" d="M13.512 5.69246H17.8682L17.8227 5.57103L17.6709 5.22192H13.7093L13.512 5.69246Z" fill="white"/>
<path id="Vector_28" d="M18.2172 6.70926H19.2038V6.25391H18.0806L18.1109 6.34498L18.2172 6.70926Z" fill="white"/>
<path id="Vector_29" d="M13.1628 6.70927L13.178 6.69409L13.1628 6.70927Z" fill="white"/>
<path id="Vector_30" d="M13.178 6.69408L13.1628 6.70926H18.2173L18.1111 6.34498L18.0807 6.25391H13.3146L13.178 6.69408Z" fill="white"/>
<path id="Vector_31" d="M18.0049 11.6726H19.2192V11.2173H18.1567L18.1111 11.3994L18.0049 11.6726Z" fill="white"/>
<path id="Vector_32" d="M13.3602 11.6726H18.0049L18.1111 11.3994L18.1567 11.2173H13.2236L13.3602 11.6726Z" fill="white"/>
<path id="Vector_33" d="M17.5798 12.7049H19.2191V12.2344H17.7923L17.6557 12.5531L17.5798 12.7049Z" fill="white"/>
<path id="Vector_34" d="M13.8003 12.7049L13.7852 12.6897L13.8003 12.7049Z" fill="white"/>
<path id="Vector_35" d="M13.7852 12.6897L13.8004 12.7049H17.5799L17.6557 12.5531L17.7924 12.2344H13.5879L13.7852 12.6897Z" fill="white"/>
<path id="Vector_36" d="M17.0334 13.6309L16.9727 13.722H19.2191V13.2666H17.261V13.2818L17.0334 13.6309Z" fill="white"/>
<path id="Vector_37" d="M14.4075 13.7218L14.3923 13.6914L14.4075 13.7218Z" fill="white"/>
<path id="Vector_38" d="M14.3924 13.6916L14.4075 13.722H16.9727L17.0334 13.6309L17.2611 13.2818V13.2666H14.1191L14.3924 13.6916Z" fill="white"/>
<path id="Vector_39" d="M16.1226 14.754H19.219V14.2834H16.5476L16.2895 14.587L16.1226 14.754Z" fill="white"/>
<path id="Vector_40" d="M15.2423 14.754L15.2119 14.7085L15.2423 14.754Z" fill="white"/>
<path id="Vector_41" d="M15.2119 14.7084L15.2423 14.754H16.1227L16.2896 14.587L16.5477 14.2834H14.8477L15.2119 14.7084Z" fill="white"/>
<path id="Vector_42" d="M18.4145 7.74153H18.5967L18.6118 7.71117L18.6726 7.65046L18.7333 7.58975L18.794 7.54421L18.8699 7.4835L18.9306 7.43796L19.0065 7.39242L19.0824 7.34689L19.1583 7.30135L19.2038 7.28617V7.271H18.3386L18.3842 7.57457L18.4145 7.74153Z" fill="white"/>
<path id="Vector_43" d="M13.0413 7.74153H18.4145L18.3841 7.57457L18.3386 7.271H13.1172L13.0413 7.74153Z" fill="white"/>
<path id="Vector_44" d="M18.3691 10.4889L18.3387 10.4434L18.3084 10.58L18.2932 10.6559H18.5361L18.4754 10.5951L18.3691 10.4889Z" fill="white"/>
<path id="Vector_45" d="M18.3386 10.4433L18.2779 10.3523L18.202 10.2157L18.1868 10.1853H16.927L16.8511 10.6558H18.293L18.3082 10.5799L18.3386 10.4433Z" fill="white"/>
<path id="Vector_46" d="M18.9307 9.33518V9.44143L18.9458 9.5325L18.961 9.62357H19.1583V9.16821H18.9458L18.9307 9.24411V9.33518Z" fill="white"/>
<path id="Vector_47" d="M17.0788 9.25928L17.0636 9.32V9.38071L17.0181 9.62357H18.035V9.48696V9.25928L18.0502 9.16821H17.1091L17.094 9.19857L17.0788 9.25928Z" fill="white"/>
<path id="Vector_48" d="M12.8289 9.62357H12.92L12.9048 9.30482V9.16821H12.7986L12.8289 9.62357Z" fill="white"/>
<path id="Vector_49" d="M12.92 9.62357H13.2842L13.2994 9.38071V9.28964L13.3298 9.18339V9.16821H12.9048V9.30482L12.92 9.62357Z" fill="white"/>
<path id="Vector_50" d="M27.4761 9.1075L27.4609 9.04678L27.4458 8.97089L27.4154 8.91018L27.3851 8.84946L27.3547 8.78875L27.3243 8.74321L27.2788 8.71286L27.2333 8.6825L27.1726 8.65214L27.127 8.63696H27.0663H26.9904L26.9145 8.65214L26.8386 8.66732L26.7779 8.69768L26.7172 8.74321L26.6717 8.78875L26.6109 8.83428L26.5654 8.895L26.5199 8.95571L26.4895 9.01643L26.444 9.09232L26.4136 9.15303L26.3833 9.24411L26.3681 9.32L26.3377 9.39589L26.3226 9.48696L26.3074 9.60839L26.3226 9.745L26.3377 9.88161L26.3681 10.0182L26.4288 10.1396L26.5047 10.2307L26.5958 10.2914L26.7172 10.3218L26.7931 10.3066L26.869 10.2914L26.9449 10.2762L27.0056 10.2459L27.0663 10.2155L27.127 10.17L27.1726 10.1245L27.2181 10.0637L27.2636 10.003L27.3092 9.94232L27.3395 9.88161L27.3699 9.80571L27.4002 9.745L27.4306 9.66911L27.4458 9.59321L27.4609 9.51732L27.4761 9.42625L27.4913 9.35036V9.27446L27.4761 9.18339V9.1075Z" fill="white"/>
<path id="Vector_51" d="M8.41198 9.5933H8.38163L8.36645 9.57812H8.32091H8.29055H8.24502H8.19948H8.15395H8.10841L8.06288 9.5933H8.01734L7.97181 9.60848H7.94145L7.89591 9.62366H7.86556L7.85038 9.63884H7.82002L7.78966 9.65402L7.7593 9.6692L7.72895 9.68438L7.68341 9.69955L7.65305 9.72991L7.60752 9.74509L7.57716 9.77545L7.53163 9.8058L7.50127 9.83616L7.47091 9.8817L7.44056 9.91205L7.42538 9.95759L7.39502 10.0031V10.0487V10.1397L7.4102 10.2156L7.44056 10.2763L7.47091 10.3219L7.51645 10.3522L7.56198 10.3674H7.60752L7.65305 10.3826L7.74413 10.3674H7.82002L7.89591 10.3522L7.95663 10.3371L8.01734 10.3219L8.06288 10.2915L8.12359 10.2612L8.15395 10.2308L8.19948 10.2004L8.22984 10.1701L8.2602 10.1397L8.29055 10.1094L8.30573 10.0638L8.32091 10.0335L8.33609 10.0031L8.35127 9.97277L8.36645 9.8817L8.38163 9.79063L8.41198 9.69955V9.62366V9.60848V9.5933Z" fill="white"/>
<path id="Vector_52" d="M22.6189 9.5933H22.6038L22.5734 9.57812H22.543H22.5127H22.4671H22.4216H22.3761L22.3305 9.5933H22.285H22.2395L22.1939 9.60848H22.1636L22.118 9.62366H22.1029H22.0725L22.0573 9.63884L22.027 9.65402H21.9966L21.9511 9.6692L21.9207 9.69955L21.8752 9.71473L21.8448 9.74509L21.7993 9.76027L21.7689 9.79063L21.7386 9.82098L21.7082 9.86652L21.6779 9.91205L21.6627 9.94241L21.6475 9.98795L21.6323 10.0487V10.1397L21.6475 10.2156L21.6627 10.2763L21.7082 10.3219L21.7386 10.3522L21.7993 10.3674H21.8448L21.8904 10.3826L21.9814 10.3674H22.0573L22.1332 10.3522L22.1939 10.3371L22.2546 10.3067L22.3154 10.2763L22.3609 10.246L22.4216 10.2156L22.452 10.1853L22.4823 10.1549L22.5127 10.1094L22.543 10.079L22.5734 10.0487V10.0031L22.5886 9.97277L22.6038 9.94241L22.6189 9.86652V9.77545L22.6341 9.69955L22.6493 9.62366L22.6341 9.60848L22.6189 9.5933Z" fill="white"/>
</g>
</g>
<defs>
<clipPath id="clip0_1_191">
<rect width="30" height="17" fill="white" transform="translate(0.689941 0.379883)"/>
</clipPath>
</defs>
</svg>
