<svg width="31" height="11" viewBox="0 0 31 11" fill="none" xmlns="http://www.w3.org/2000/svg">
<g id="SVG" clip-path="url(#clip0_1_183)">
<g id="Group">
<g id="Group_2">
<path id="Vector" d="M13.6907 10.0948H11.2515L12.7854 0.689941H15.2246L13.6907 10.0948Z" fill="white"/>
<path id="Vector_2" d="M9.18952 0.689942L6.85088 7.15264L6.57427 5.76957L5.74443 1.51978C5.74443 1.51978 5.64384 0.664795 4.58768 0.664795H0.740235L0.689941 0.840822C0.689941 0.840822 1.87184 1.09229 3.2549 1.92213L5.39237 10.0948H7.93219L11.8299 0.689942H9.18952Z" fill="white"/>
<path id="Vector_3" d="M28.4268 10.0948H30.6649L28.7034 0.689941H26.742C25.8367 0.689941 25.6104 1.39405 25.6104 1.39405L21.9893 10.0948H24.5291L25.032 8.68659H28.1502L28.4268 10.0948ZM25.7361 6.75029L27.0186 3.22976L27.7479 6.75029H25.7361Z" fill="white"/>
<path id="Vector_4" d="M22.1651 2.95314L22.5172 0.94141C22.5172 0.94141 21.4358 0.539062 20.3042 0.539062C19.0972 0.539062 16.2053 1.06714 16.2053 3.65725C16.2053 6.09648 19.6001 6.12163 19.6001 7.40411C19.6001 8.68659 16.5574 8.46027 15.5515 7.65558L15.1995 9.7679C15.1995 9.7679 16.2808 10.296 17.9656 10.296C19.6253 10.296 22.1651 9.44099 22.1651 7.0772C22.1651 4.63797 18.7451 4.41165 18.7451 3.33034C18.7451 2.22389 21.1089 2.37477 22.1651 2.95314Z" fill="white"/>
</g>
<path id="Vector_5" d="M6.57427 5.74443L5.74443 1.51978C5.74443 1.51978 5.64384 0.664795 4.58768 0.664795H0.740235L0.689941 0.840822C0.689941 0.840822 2.5508 1.21802 4.31106 2.67653C6.02104 4.03445 6.57427 5.74443 6.57427 5.74443Z" fill="white"/>
</g>
</g>
<defs>
<clipPath id="clip0_1_183">
<rect width="30" height="10" fill="white" transform="translate(0.689941 0.379883)"/>
</clipPath>
</defs>
</svg>
